# Exported from Wings 3D 0.98.26b
mtllib cube.mtl
o cube1
#8 vertices, 6 faces
v -1.0 -1.0 1.0
v -1.0 1.0 1.0
v 1.0 1.0 1.0
v 1.0 -1.0 1.0
v -1.0 -1.0 -1.0
v -1.0 1.0 -1.0
v 1.0 1.0 -1.0	
v 1.0 -1.0 -1.0

vn 1.0 0.0 0.0
vn 0.0 1.0 0.0
vn 0.0 0.0 1.0
vn -1.0 0.0 0.0
vn 0.0 -1.0 0.0
vn 0.0 0.0 -1.0

vt 0.49987793 0.749755859
vt 0.249938965 0.749755855

vt 0.249938965 0.50161499
vt 0.49987793 0.50161499

vt 0.000244141 0.50161499
vt 0.000244141 0.749755855

vt 0.2503 0.999674479
vt 0.49987793 0.999674479

vt 0.749816895 0.749755859
vt 0.749816895 0.50161499

vt 0.999755859 0.50161499
vt 0.999755859 0.749755859

vt 0.2506104 0.2508138
vt 0.499 0.2508138

vt 0.2503 0.749755855
vt 0.2503 0.50161499

vt 0.4987793 0.50161499

g cube1_default
usemtl default
f 3/1/3 2/2/3 1/3/3 4/4/3
f 5/5/4 1/3/4 2/2/4 6/6/4
f 6/7/2 2/15/2 3/1/2 7/8/2
f 7/9/1 3/1/1 4/4/1 8/10/1
f 8/10/6 5/11/6 6/12/6 7/9/6
f 5/13/5 8/14/5 4/17/5 1/16/5
